<?xml version="1.0" encoding="UTF-8"?><svg xmlns="http://www.w3.org/2000/svg" xmlns:xlink="http://www.w3.org/1999/xlink" contentScriptType="text/ecmascript" width="720" zoomAndPan="magnify" contentStyleType="text/css" viewBox="0 0 720 374.999991" height="374.999991" preserveAspectRatio="xMidYMid meet" version="1.0"><defs><filter x="0%" y="0%" width="100%" xmlns:xlink="http://www.w3.org/1999/xlink" xlink:type="simple" xlink:actuate="onLoad" height="100%" id="filter-remove-color" xlink:show="other"><feColorMatrix values="0 0 0 0 1 0 0 0 0 1 0 0 0 0 1 0 0 0 1 0" color-interpolation-filters="sRGB"/></filter><mask id="mask-0"><g filter="url(#filter-remove-color)"><rect x="-72" width="864" fill="rgb(0%, 0%, 0%)" y="-37.499999" height="449.999989" fill-opacity="0.298"/></g></mask><clipPath id="clip-0"><path d="M 0.21875 0.117188 L 100 0.117188 L 100 108 L 0.21875 108 Z M 0.21875 0.117188 " clip-rule="nonzero"/></clipPath><clipPath id="clip-1"><path d="M 37 34 L 193.71875 34 L 193.71875 184.617188 L 37 184.617188 Z M 37 34 " clip-rule="nonzero"/></clipPath><clipPath id="clip-2"><rect x="0" width="195" y="0" height="186"/></clipPath></defs><rect x="-72" width="864" fill="rgb(100%, 100%, 100%)" y="-37.499999" height="449.999989" fill-opacity="1"/><rect x="-72" width="864" fill="rgb(100%, 100%, 100%)" y="-37.499999" height="449.999989" fill-opacity="1"/><rect x="-72" width="864" fill="rgb(100%, 100%, 100%)" y="-37.499999" height="449.999989" fill-opacity="1"/><g mask="url(#mask-0)"><g transform="matrix(1, 0, 0, 1, 263, 95)"><g id="source-5" clip-path="url(#clip-2)"><path fill="rgb(96.469116%, 29.40979%, 19.219971%)" d="M 57.328125 38.648438 C 56.453125 42.003906 56.507812 45.605469 57.566406 48.917969 C 52.292969 47.839844 47.207031 46.070312 43.265625 42.28125 C 41.460938 40.546875 39.894531 38.441406 39.320312 36.015625 C 38.75 33.574219 39.3125 30.769531 41.191406 29.109375 C 43.933594 26.671875 47.875 28.148438 49.746094 30.910156 C 49.582031 30.664062 49.863281 29.722656 49.949219 29.433594 C 50.089844 28.945312 50.296875 28.472656 50.554688 28.039062 C 51.074219 27.210938 51.820312 26.519531 52.695312 26.078125 C 54.488281 25.160156 56.832031 25.355469 58.363281 26.722656 C 61.183594 29.238281 59.617188 33.609375 58.148438 36.378906 C 57.757812 37.082031 57.53125 37.859375 57.328125 38.648438 Z M 57.328125 38.648438 " fill-opacity="1" fill-rule="nonzero"/><g clip-path="url(#clip-0)"><path fill="rgb(64.309692%, 77.249146%, 17.248535%)" d="M 65.839844 95.539062 C 62.132812 96.261719 55.027344 96.769531 52.605469 96.800781 C 47.910156 96.867188 43.1875 96.53125 38.585938 95.550781 C 31.230469 93.976562 24.125 90.078125 19.976562 83.8125 C 18.011719 80.832031 16.757812 77.035156 18.042969 73.710938 C 19.089844 71.003906 21.738281 69.09375 24.589844 68.542969 C 28.617188 67.765625 32.375 69.386719 35.421875 71.910156 C 31.847656 65.089844 37.34375 54.410156 46.160156 59.632812 C 52.457031 63.355469 51.679688 70.972656 52.046875 77.273438 C 52.101562 78.15625 52.207031 79.054688 52.359375 79.925781 C 53.480469 86.226562 57.273438 92.171875 63.375 94.730469 C 63.9375 94.957031 65.222656 95.65625 65.839844 95.539062 Z M 23.453125 36.972656 C 25.464844 36.972656 27.09375 35.34375 27.09375 33.339844 C 27.09375 31.332031 25.464844 29.703125 23.453125 29.703125 C 21.445312 29.703125 19.816406 31.332031 19.816406 33.339844 C 19.804688 35.34375 21.433594 36.972656 23.453125 36.972656 Z M 80.9375 0.117188 C 79.96875 0.117188 79.1875 0.90625 79.1875 1.867188 C 79.1875 2.835938 79.976562 3.613281 80.9375 3.613281 C 81.910156 3.613281 82.6875 2.824219 82.6875 1.867188 C 82.6875 0.90625 81.910156 0.117188 80.9375 0.117188 Z M 96.039062 24.675781 C 94.128906 24.675781 92.570312 26.226562 92.570312 28.136719 C 92.570312 30.046875 94.128906 31.601562 96.039062 31.601562 C 97.949219 31.601562 99.507812 30.046875 99.507812 28.136719 C 99.507812 26.226562 97.949219 24.675781 96.039062 24.675781 Z M 86.308594 10.832031 C 85.453125 10.832031 84.773438 11.523438 84.773438 12.363281 C 84.773438 13.214844 85.464844 13.894531 86.308594 13.894531 C 87.160156 13.894531 87.839844 13.203125 87.839844 12.363281 C 87.839844 11.523438 87.148438 10.832031 86.308594 10.832031 Z M 16.457031 100.589844 C 14.609375 100.589844 13.105469 102.089844 13.105469 103.933594 C 13.105469 105.777344 14.609375 107.277344 16.457031 107.277344 C 18.300781 107.277344 19.804688 105.777344 19.804688 103.933594 C 19.804688 102.089844 18.300781 100.589844 16.457031 100.589844 Z M 4.59375 90.339844 C 3.429688 90.339844 2.480469 91.289062 2.480469 92.453125 C 2.480469 93.617188 3.429688 94.570312 4.59375 94.570312 C 5.761719 94.570312 6.710938 93.617188 6.710938 92.453125 C 6.710938 91.289062 5.761719 90.339844 4.59375 90.339844 Z M 4.59375 31.804688 C 4.59375 30.640625 3.644531 29.691406 2.480469 29.691406 C 1.324219 29.703125 0.371094 30.640625 0.371094 31.804688 C 0.371094 32.972656 1.324219 33.921875 2.488281 33.921875 C 3.65625 33.921875 4.59375 32.972656 4.59375 31.804688 Z M 4.59375 31.804688 " fill-opacity="1" fill-rule="nonzero"/></g><g clip-path="url(#clip-1)"><path fill="rgb(8.239746%, 47.839355%, 17.248535%)" d="M 67.15625 66.105469 C 65.332031 59.101562 65.34375 51.625 67.265625 44.644531 C 68.203125 41.246094 70.074219 36.597656 73.519531 34.871094 C 75.332031 33.964844 77.65625 33.996094 79.320312 35.28125 C 81.394531 36.886719 80.582031 39.519531 79.179688 41.601562 C 81.078125 40.328125 83.046875 39.023438 85.292969 38.527344 C 87.539062 38.03125 90.140625 38.539062 91.558594 40.339844 C 93.101562 42.316406 92.753906 45.269531 91.460938 47.417969 C 88.15625 52.910156 80.703125 53.804688 75.171875 57.054688 C 71.617188 59.125 68.851562 62.371094 67.15625 66.105469 Z M 190.464844 116.265625 C 190.324219 116.308594 190.195312 116.339844 190.054688 116.363281 L 189.96875 116.375 C 187.96875 116.71875 186.035156 117.378906 184.230469 118.425781 C 182.417969 119.449219 180.796875 120.949219 179.339844 122.652344 C 178.570312 123.558594 177.859375 124.542969 177.1875 125.578125 C 177.707031 131.089844 178.238281 136.613281 178.753906 142.128906 C 181.347656 163.339844 162.175781 180.789062 142.699219 183.453125 C 124.53125 184.984375 106.234375 185.027344 88.066406 183.453125 C 67.070312 182.339844 51.234375 162.207031 52.011719 142.128906 C 52.542969 136.519531 53.070312 130.90625 53.601562 125.296875 C 52.984375 124.367188 52.335938 123.484375 51.636719 122.664062 C 50.175781 120.960938 48.558594 119.460938 46.742188 118.433594 C 44.9375 117.386719 43.003906 116.730469 41.007812 116.386719 L 40.921875 116.375 C 38.597656 115.964844 37.054688 113.761719 37.464844 111.441406 C 37.875 109.125 40.078125 107.582031 42.398438 107.992188 C 42.539062 108.011719 42.679688 108.042969 42.820312 108.085938 C 45.8125 108.929688 48.652344 110.289062 51.09375 112.113281 C 52.378906 113.050781 53.527344 114.128906 54.550781 115.273438 C 54.757812 113.09375 54.960938 110.914062 55.167969 108.734375 L 175.589844 108.734375 C 175.808594 110.988281 176.023438 113.246094 176.226562 115.5 C 177.308594 114.269531 178.507812 113.117188 179.878906 112.113281 C 182.320312 110.289062 185.160156 108.929688 188.152344 108.085938 C 190.421875 107.449219 192.777344 108.765625 193.414062 111.03125 C 194.050781 113.277344 192.722656 115.628906 190.464844 116.265625 Z M 71.953125 164.515625 C 64.640625 157.4375 60.566406 146.84375 61.367188 136.441406 C 61.421875 135.785156 60.945312 135.191406 60.285156 135.117188 C 59.605469 135.027344 58.980469 135.503906 58.894531 136.195312 C 57.46875 147.308594 61.160156 159.023438 68.949219 167.441406 C 68.972656 167.460938 69.003906 167.503906 69.035156 167.527344 C 69.867188 168.335938 71.195312 168.316406 71.996094 167.484375 C 72.804688 166.640625 72.785156 165.316406 71.953125 164.515625 Z M 71.953125 164.515625 " fill-opacity="1" fill-rule="nonzero"/></g><path fill="rgb(34.118652%, 64.709473%, 17.248535%)" d="M 68.03125 20.683594 C 68.03125 18.566406 69.75 16.863281 71.855469 16.863281 C 73.972656 16.863281 75.679688 18.578125 75.679688 20.683594 C 75.679688 22.796875 73.960938 24.5 71.855469 24.5 C 69.75 24.511719 68.03125 22.796875 68.03125 20.683594 Z M 16.457031 47.527344 C 14.996094 47.527344 13.808594 48.714844 13.808594 50.167969 C 13.808594 51.625 14.996094 52.8125 16.457031 52.8125 C 17.914062 52.8125 19.101562 51.625 19.101562 50.167969 C 19.101562 48.714844 17.914062 47.527344 16.457031 47.527344 Z M 174.046875 106.609375 L 65.761719 84.632812 C 77.957031 73.636719 99.472656 68.640625 122.492188 72.796875 C 121.746094 70.660156 121.542969 68.167969 121.777344 67.175781 C 122.199219 65.394531 124.953125 64.507812 127.945312 65.210938 C 130.9375 65.910156 133.023438 67.917969 132.601562 69.710938 C 132.375 70.679688 131.121094 72.761719 129.554688 74.339844 C 150.878906 79.917969 167.4375 92.410156 174.046875 106.609375 Z M 111.496094 76.992188 C 111.613281 76.355469 111.195312 75.742188 110.554688 75.621094 C 106.042969 74.78125 101.515625 74.8125 97 75.332031 C 94.742188 75.601562 92.496094 76.019531 90.269531 76.667969 C 88.046875 77.316406 85.84375 78.167969 83.738281 79.429688 C 83.703125 79.453125 83.660156 79.484375 83.617188 79.507812 C 82.667969 80.164062 82.429688 81.46875 83.097656 82.417969 C 83.769531 83.367188 85.066406 83.605469 86.015625 82.9375 L 86.027344 82.925781 C 89.234375 80.691406 93.351562 79.355469 97.488281 78.558594 C 101.644531 77.78125 105.976562 77.457031 110.15625 77.929688 L 110.199219 77.929688 C 110.816406 78.007812 111.378906 77.597656 111.496094 76.992188 Z M 111.496094 76.992188 " fill-opacity="1" fill-rule="nonzero"/><path fill="rgb(100%, 100%, 100%)" d="M 71.953125 164.515625 C 72.785156 165.324219 72.804688 166.640625 71.996094 167.472656 C 71.1875 168.304688 69.867188 168.324219 69.035156 167.515625 C 69.015625 167.496094 68.972656 167.453125 68.949219 167.429688 C 61.152344 159.015625 57.457031 147.285156 58.894531 136.183594 C 58.980469 135.503906 59.605469 135.019531 60.285156 135.105469 C 60.945312 135.191406 61.421875 135.785156 61.367188 136.429688 C 60.566406 146.84375 64.640625 157.429688 71.953125 164.515625 Z M 110.554688 75.632812 C 106.042969 74.792969 101.515625 74.824219 97 75.339844 C 94.742188 75.613281 92.496094 76.03125 90.269531 76.679688 C 88.046875 77.328125 85.84375 78.179688 83.738281 79.441406 C 83.703125 79.464844 83.660156 79.496094 83.617188 79.515625 C 82.667969 80.175781 82.429688 81.480469 83.097656 82.429688 C 83.769531 83.378906 85.066406 83.617188 86.015625 82.949219 L 86.027344 82.9375 C 89.234375 80.703125 93.351562 79.367188 97.488281 78.566406 C 101.644531 77.789062 105.976562 77.46875 110.15625 77.941406 L 110.199219 77.941406 C 110.804688 78.007812 111.367188 77.597656 111.484375 76.992188 C 111.613281 76.355469 111.195312 75.75 110.554688 75.632812 Z M 110.554688 75.632812 " fill-opacity="1" fill-rule="nonzero"/></g></g></g></svg>